<svg width="181" height="181" viewBox="0 0 181 181" fill="none" xmlns="http://www.w3.org/2000/svg">
<path d="M104.131 48.018C104.131 57.1551 96.6633 64.5629 87.4503 64.5629C78.2503 64.5629 70.7699 57.1551 70.7699 48.018C70.7699 38.9073 78.2373 31.5131 87.4503 31.5131C96.6633 31.5131 104.131 38.9073 104.131 48.018ZM135.953 48.0118C135.953 53.9554 134.815 59.6074 132.828 64.8552C126.471 83.5533 84.3857 179.676 84.3857 179.676C84.3857 179.676 44.7622 74.8733 41.323 62.8538C39.7911 58.1961 38.9412 53.2264 38.9412 48.0247C38.9412 21.5275 60.6598 1.60192e-06 87.4503 1.60192e-06C114.24 -0.00678021 135.959 21.5207 135.953 48.0118ZM118.396 48.2038C118.396 31.2811 104.553 17.552 87.4503 17.552C70.3618 17.552 56.5118 31.2743 56.5118 48.197C56.5118 65.1197 70.3618 78.842 87.4503 78.842C104.552 78.842 118.396 65.1264 118.396 48.2038Z" fill="#D72C2C"/>
<ellipse cx="86.996" cy="48.5057" rx="36.5227" ry="36.9736" fill="white"/>
<path d="M114.016 21.9364C110.538 18.4309 106.399 15.6502 101.839 13.7552C97.2793 11.8603 92.3887 10.8888 87.4507 10.897C82.5115 10.8892 77.6199 11.8609 73.0588 13.7558C68.4976 15.6507 64.3574 18.4312 60.8777 21.9364C46.2273 36.5831 46.2273 60.4243 60.8777 75.0748C64.3575 78.581 68.4982 81.3621 73.0601 83.257C77.6221 85.1519 82.5146 86.1231 87.4544 86.1143C92.3922 86.1229 97.2827 85.152 101.843 83.2577C106.403 81.3634 110.542 78.5834 114.02 75.0785C128.67 60.4319 128.67 36.5906 114.016 21.9364ZM88.127 18.4457H86.7781C87.0073 18.442 87.2252 18.4119 87.4544 18.4119C87.6836 18.4119 87.8978 18.442 88.127 18.4457ZM110.905 67.293H102.477L97.7499 76.7469C94.4524 77.9651 90.966 78.5922 87.4507 78.5993C83.9289 78.5929 80.4359 77.9645 77.1326 76.7431L72.417 67.3306H64.019C60.9207 63.4787 58.8254 58.919 57.9206 54.0592L64.902 44.7481L60.3329 35.6062C61.7908 32.5047 63.7725 29.6778 66.1908 27.2495C69.5755 23.853 73.7242 21.3161 78.2899 19.851L87.4469 25.9607L96.6076 19.8548C101.172 21.3209 105.32 23.8562 108.707 27.2495C111.122 29.6749 113.103 32.4979 114.561 35.5949L109.992 44.7481L116.973 54.0592C116.073 58.9033 113.988 63.4496 110.905 67.293Z" fill="black"/>
<path d="M74.2957 44.7482L79.9319 59.7781H94.9618L100.598 44.7482L87.4469 35.3545L74.2957 44.7482Z" fill="black"/>
</svg>
