<svg width="100" height="100" viewBox="0 0 100 100" fill="none" xmlns="http://www.w3.org/2000/svg">
<path d="M79.4625 20.5374C75.6059 16.6501 71.0164 13.5666 65.9598 11.4652C60.9032 9.36394 55.48 8.28663 50.0042 8.29571C44.5272 8.28714 39.1029 9.36465 34.045 11.4659C28.9872 13.5671 24.3961 16.6504 20.5375 20.5374C4.29169 36.779 4.29169 63.2165 20.5375 79.4624C24.3962 83.3504 28.9878 86.4343 34.0466 88.5356C39.1053 90.6369 44.5306 91.7139 50.0084 91.7041C55.4839 91.7137 60.9069 90.637 65.9635 88.5364C71.02 86.4358 75.6097 83.3531 79.4667 79.4666C95.7125 63.2249 95.7125 36.7874 79.4625 20.5374ZM50.7542 16.6665H49.2584C49.5125 16.6624 49.7542 16.629 50.0084 16.629C50.2625 16.629 50.5 16.6624 50.7542 16.6665ZM76.0125 70.8332H66.6667L61.425 81.3166C57.7685 82.6674 53.9023 83.3628 50.0042 83.3707C46.0989 83.3636 42.2255 82.6668 38.5625 81.3124L33.3334 70.8749H24.0209C20.5852 66.6035 18.2617 61.5472 17.2584 56.1582L25 45.8332L19.9334 35.6957C21.5501 32.2565 23.7475 29.1217 26.4292 26.429C30.1825 22.6626 34.7829 19.8495 39.8459 18.2249L50 24.9999L60.1584 18.229C65.2198 19.8548 69.8197 22.6662 73.575 26.429C76.2538 29.1185 78.4497 32.2489 80.0667 35.6832L75 45.8332L82.7417 56.1582C81.7429 61.5299 79.4312 66.5712 76.0125 70.8332Z" fill="white" fill-opacity="0.24"/>
<path d="M35.4167 45.8333L41.6667 62.5H58.3333L64.5833 45.8333L50 35.4166L35.4167 45.8333Z" fill="white" fill-opacity="0.24"/>
</svg>
