<svg width="100" height="100" viewBox="0 0 100 100" fill="none" xmlns="http://www.w3.org/2000/svg">
<path d="M83.8379 74.5703C81.9957 70.2068 79.3224 66.2432 75.9668 62.9004C72.6214 59.5479 68.6585 56.875 64.2969 55.0293C64.2578 55.0098 64.2188 55 64.1797 54.9805C70.2637 50.5859 74.2188 43.4277 74.2188 35.3516C74.2188 21.9727 63.3789 11.1328 50 11.1328C36.6211 11.1328 25.7813 21.9727 25.7813 35.3516C25.7813 43.4277 29.7363 50.5859 35.8203 54.9902C35.7812 55.0098 35.7422 55.0195 35.7031 55.0391C31.3281 56.8848 27.4023 59.5313 24.0332 62.9102C20.6808 66.2555 18.0079 70.2185 16.1621 74.5801C14.3488 78.8501 13.3709 83.4282 13.2813 88.0664C13.2786 88.1706 13.2969 88.2743 13.335 88.3714C13.3731 88.4684 13.4302 88.5569 13.5031 88.6315C13.5759 88.7061 13.6629 88.7654 13.7589 88.8059C13.855 88.8464 13.9582 88.8672 14.0625 88.8672H19.9219C20.3516 88.8672 20.6934 88.5254 20.7031 88.1055C20.8984 80.5664 23.9258 73.5059 29.2773 68.1543C34.8145 62.6172 42.168 59.5703 50 59.5703C57.832 59.5703 65.1855 62.6172 70.7227 68.1543C76.0742 73.5059 79.1016 80.5664 79.2969 88.1055C79.3066 88.5352 79.6484 88.8672 80.0781 88.8672H85.9375C86.0418 88.8672 86.145 88.8464 86.2411 88.8059C86.3371 88.7654 86.4241 88.7061 86.4969 88.6315C86.5698 88.5569 86.6269 88.4684 86.665 88.3714C86.7031 88.2743 86.7214 88.1706 86.7188 88.0664C86.6211 83.3984 85.6543 78.8574 83.8379 74.5703V74.5703ZM50 52.1484C45.5176 52.1484 41.2988 50.4004 38.125 47.2266C34.9512 44.0527 33.2031 39.834 33.2031 35.3516C33.2031 30.8691 34.9512 26.6504 38.125 23.4766C41.2988 20.3027 45.5176 18.5547 50 18.5547C54.4824 18.5547 58.7012 20.3027 61.875 23.4766C65.0488 26.6504 66.7969 30.8691 66.7969 35.3516C66.7969 39.834 65.0488 44.0527 61.875 47.2266C58.7012 50.4004 54.4824 52.1484 50 52.1484Z" fill="white" fill-opacity="0.24"/>
</svg>
